HIERARCHY
ROOT Hips
{
  OFFSET -16.334 25.779 -236.593
  CHANNELS 6 Xposition Yposition Zposition Zrotation Xrotation Yrotation
  JOINT LeftUpLeg
  {
    OFFSET 6.406 -5.817 2.661
    CHANNELS 6 Xposition Yposition Zposition Zrotation Xrotation Yrotation
    JOINT LeftLeg
    {
      OFFSET -0.000 -50.199 0.000
      CHANNELS 6 Xposition Yposition Zposition Zrotation Xrotation Yrotation
      JOINT LeftFoot
      {
        OFFSET 0.000 -39.424 -0.000
        CHANNELS 6 Xposition Yposition Zposition Zrotation Xrotation Yrotation
        End Site
        {
          OFFSET 0.000 -7.644 4.413
        }
      }
    }
  }
  JOINT RightUpLeg
  {
    OFFSET -6.583 -5.823 3.084
    CHANNELS 6 Xposition Yposition Zposition Zrotation Xrotation Yrotation
    JOINT RightLeg
    {
      OFFSET 0.000 -47.886 0.000
      CHANNELS 6 Xposition Yposition Zposition Zrotation Xrotation Yrotation
      JOINT RightFoot
      {
        OFFSET 0.000 -43.070 -0.000
        CHANNELS 6 Xposition Yposition Zposition Zrotation Xrotation Yrotation
        End Site
        {
          OFFSET 0.000 -7.421 4.284
        }
      }
    }
  }
  JOINT Spine
  {
    OFFSET 0.000 5.455 -5.455
    CHANNELS 6 Xposition Yposition Zposition Zrotation Xrotation Yrotation
    JOINT LeftShoulder
    {
      OFFSET -0.000 35.333 0.000
      CHANNELS 6 Xposition Yposition Zposition Zrotation Xrotation Yrotation
      JOINT LeftArm
      {
        OFFSET 16.497 0.000 -0.000
        CHANNELS 6 Xposition Yposition Zposition Zrotation Xrotation Yrotation
        JOINT LeftForeArm
        {
          OFFSET 21.160 0.000 0.000
          CHANNELS 6 Xposition Yposition Zposition Zrotation Xrotation Yrotation
          JOINT LeftHand
          {
            OFFSET 21.675 -0.000 -0.000
            CHANNELS 6 Xposition Yposition Zposition Zrotation Xrotation Yrotation
            JOINT LeftHandThumb1
            {
            OFFSET 4.970 -0.620 3.390
            CHANNELS 6 Xposition Yposition Zposition Zrotation Xrotation Yrotation
              JOINT LeftHandThumb2
              {
              OFFSET 2.150 -0.000 0.000
              CHANNELS 6 Xposition Yposition Zposition Zrotation Xrotation Yrotation
                JOINT LeftHandThumb3
                {
                OFFSET 2.200 -0.000 0.000
                CHANNELS 6 Xposition Yposition Zposition Zrotation Xrotation Yrotation
                  JOINT LeftHandThumb4
                  {
                  OFFSET 1.700 -0.000 0.000
                  CHANNELS 6 Xposition Yposition Zposition Zrotation Xrotation Yrotation
                  }
                }
              }
            }
            JOINT LeftHandIndex1
            {
            OFFSET 8.730 0.680 2.070
            CHANNELS 6 Xposition Yposition Zposition Zrotation Xrotation Yrotation
              JOINT LeftHandIndex2
              {
              OFFSET 2.670 -0.000 0.000
              CHANNELS 6 Xposition Yposition Zposition Zrotation Xrotation Yrotation
                JOINT LeftHandIndex3
                {
                OFFSET 2.130 -0.000 0.000
                CHANNELS 6 Xposition Yposition Zposition Zrotation Xrotation Yrotation
                  JOINT LeftHandIndex4
                  {
                  OFFSET 1.800 -0.000 0.000
                  CHANNELS 6 Xposition Yposition Zposition Zrotation Xrotation Yrotation
                  }
                }
              }
            }
            JOINT LeftHandMiddle1
            {
            OFFSET 9.220 0.670 0.550
            CHANNELS 6 Xposition Yposition Zposition Zrotation Xrotation Yrotation
              JOINT LeftHandMiddle2
              {
              OFFSET 2.660 -0.000 0.000
              CHANNELS 6 Xposition Yposition Zposition Zrotation Xrotation Yrotation
                JOINT LeftHandMiddle3
                {
                OFFSET 2.280 -0.000 0.000
                CHANNELS 6 Xposition Yposition Zposition Zrotation Xrotation Yrotation
                  JOINT LeftHandMiddle4
                  {
                  OFFSET 1.500 -0.000 0.000
                  CHANNELS 6 Xposition Yposition Zposition Zrotation Xrotation Yrotation
                  }
                }
              }
            }
            JOINT LeftHandRing1
            {
            OFFSET 9.250 0.670 -1.130
            CHANNELS 6 Xposition Yposition Zposition Zrotation Xrotation Yrotation
              JOINT LeftHandRing2
              {
              OFFSET 2.470 -0.000 0.000
              CHANNELS 6 Xposition Yposition Zposition Zrotation Xrotation Yrotation
                JOINT LeftHandRing3
                {
                OFFSET 2.210 -0.000 0.000
                CHANNELS 6 Xposition Yposition Zposition Zrotation Xrotation Yrotation
                  JOINT LeftHandRing4
                  {
                  OFFSET 1.800 -0.000 0.000
                  CHANNELS 6 Xposition Yposition Zposition Zrotation Xrotation Yrotation
                  }
                }
              }
            }
            JOINT LeftHandPinky1
            {
            OFFSET 9.350 0.660 -2.720
            CHANNELS 6 Xposition Yposition Zposition Zrotation Xrotation Yrotation
              JOINT LeftHandPinky2
              {
              OFFSET 1.630 -0.000 0.000
              CHANNELS 6 Xposition Yposition Zposition Zrotation Xrotation Yrotation
                JOINT LeftHandPinky3
                {
                OFFSET 1.710 -0.000 0.000
                CHANNELS 6 Xposition Yposition Zposition Zrotation Xrotation Yrotation
                  JOINT LeftHandPinky4
                  {
                  OFFSET 1.800 -0.000 0.000
                  CHANNELS 6 Xposition Yposition Zposition Zrotation Xrotation Yrotation
                  }
                }
              }
            }
          }
        }
      }
    }
    JOINT RightShoulder
    {
      OFFSET -0.000 35.333 0.000
      CHANNELS 6 Xposition Yposition Zposition Zrotation Xrotation Yrotation
      JOINT RightArm
      {
        OFFSET -18.327 0.000 -0.000
        CHANNELS 6 Xposition Yposition Zposition Zrotation Xrotation Yrotation
        JOINT RightForeArm
        {
          OFFSET -21.702 0.000 0.000
          CHANNELS 6 Xposition Yposition Zposition Zrotation Xrotation Yrotation
          JOINT RightHand
          {
            OFFSET -21.881 0.000 -0.000
            CHANNELS 6 Xposition Yposition Zposition Zrotation Xrotation Yrotation
            JOINT RightHandThumb1
            {
            OFFSET -4.970 -0.620 3.390
            CHANNELS 6 Xposition Yposition Zposition Zrotation Xrotation Yrotation
              JOINT RightHandThumb2
              {
              OFFSET -2.150 0.000 0.000
              CHANNELS 6 Xposition Yposition Zposition Zrotation Xrotation Yrotation
                JOINT RightHandThumb3
                {
                OFFSET -2.200 0.000 0.000
                CHANNELS 6 Xposition Yposition Zposition Zrotation Xrotation Yrotation
                  JOINT RightHandThumb4
                  {
                  OFFSET -1.700 0.000 0.000
                  CHANNELS 6 Xposition Yposition Zposition Zrotation Xrotation Yrotation
                  }
                }
              }
            }
            JOINT RightHandIndex1
            {
            OFFSET -8.730 0.680 2.070
            CHANNELS 6 Xposition Yposition Zposition Zrotation Xrotation Yrotation
              JOINT RightHandIndex2
              {
              OFFSET -2.670 0.000 0.000
              CHANNELS 6 Xposition Yposition Zposition Zrotation Xrotation Yrotation
                JOINT RightHandIndex3
                {
                OFFSET -2.130 0.000 0.000
                CHANNELS 6 Xposition Yposition Zposition Zrotation Xrotation Yrotation
                  JOINT RightHandIndex4
                  {
                  OFFSET -1.800 0.000 0.000
                  CHANNELS 6 Xposition Yposition Zposition Zrotation Xrotation Yrotation
                  }
                }
              }
            }
            JOINT RightHandMiddle1
            {
            OFFSET -9.220 0.670 0.550
            CHANNELS 6 Xposition Yposition Zposition Zrotation Xrotation Yrotation
              JOINT RightHandMiddle2
              {
              OFFSET -2.660 0.000 0.000
              CHANNELS 6 Xposition Yposition Zposition Zrotation Xrotation Yrotation
                JOINT RightHandMiddle3
                {
                OFFSET -2.280 0.000 0.000
                CHANNELS 6 Xposition Yposition Zposition Zrotation Xrotation Yrotation
                  JOINT RightHandMiddle4
                  {
                  OFFSET -1.500 0.000 0.000
                  CHANNELS 6 Xposition Yposition Zposition Zrotation Xrotation Yrotation
                  }
                }
              }
            }
            JOINT RightHandRing1
            {
            OFFSET -9.250 0.670 -1.130
            CHANNELS 6 Xposition Yposition Zposition Zrotation Xrotation Yrotation
              JOINT RightHandRing2
              {
              OFFSET -2.470 0.000 0.000
              CHANNELS 6 Xposition Yposition Zposition Zrotation Xrotation Yrotation
                JOINT RightHandRing3
                {
                OFFSET -2.210 0.000 0.000
                CHANNELS 6 Xposition Yposition Zposition Zrotation Xrotation Yrotation
                  JOINT RightHandRing4
                  {
                  OFFSET -1.800 0.000 0.000
                  CHANNELS 6 Xposition Yposition Zposition Zrotation Xrotation Yrotation
                  }
                }
              }
            }
            JOINT RightHandPinky1
            {
            OFFSET -9.350 0.660 -2.720
            CHANNELS 6 Xposition Yposition Zposition Zrotation Xrotation Yrotation
              JOINT RightHandPinky2
              {
              OFFSET -1.630 0.000 0.000
              CHANNELS 6 Xposition Yposition Zposition Zrotation Xrotation Yrotation
                JOINT RightHandPinky3
                {
                OFFSET -1.710 0.000 0.000
                CHANNELS 6 Xposition Yposition Zposition Zrotation Xrotation Yrotation
                  JOINT RightHandPinky4
                  {
                  OFFSET -1.800 0.000 0.000
                  CHANNELS 6 Xposition Yposition Zposition Zrotation Xrotation Yrotation
                  }
                }
              }
            }
          }
        }
      }
    }
    JOINT Neck
    {
      OFFSET -0.000 35.333 0.000
      CHANNELS 6 Xposition Yposition Zposition Zrotation Xrotation Yrotation
      JOINT Head
      {
        OFFSET -0.000 18.289 -0.000
        CHANNELS 6 Xposition Yposition Zposition Zrotation Xrotation Yrotation
        End Site
        {
          OFFSET -0.000 0.073 -0.000
        }
      }
    }
  }
}
MOTION
Frames:	6
Frame Time:	0.0333333
-41.6851 24.1349 -202.082 -2.61738 12.3932 14.7246 6.4802 -6.30086 2.63791 -13.3012 -13.1319 -6.45079 -8.98726e-06 -49.4241 0 7.11319 -3.32069 0.414152 6.70552e-06 -36.6822 -2.38419e-05 22.8862 20.6425 2.06972 -6.928 -6.30281 1.84309 -6.03813 -8.91765 -9.96048 0 -41.9063 -4.76837e-05 18.5324 23.5445 2.79392e-06 2.98023e-06 -46.1752 2.38419e-05 -32.5637 -61.6762 -37.8034 1.3411e-05 5.85848 -5.85847 -1.64031 -12.1233 2.15659 -1.49012e-06 35.3322 4.76837e-05 -22.8487 1.02453e-05 1.82916 16.4577 0 -2.38419e-05 -34.3574 32.9092 -29.4827 22.359 1.19209e-05 1.19209e-05 2.69588e-05 -1.86939e-06 -111.914 20.1437 -1.78814e-05 -1.19209e-05 -0.285337 4.43614 177.922 0.0062 0.0497 0.0339 0 0 0 0 0.0215 0 0 0 0 0 0.022 0 0 0 0 0 0.017 0 0 0 0 -0.0068 0.0873 0.0207 0 0 0 0 0.0267 0 0 0 0 0 0.0213 0 0 0 0 0 0.018 0 0 0 0 -0.0067 0.0922 0.0055 0 0 0 0 0.0266 0 0 0 0 0 0.0228 0 0 0 0 0 0.015 0 0 0 0 -0.0067 0.0925 -0.0113 0 0 0 0 0.0247 0 0 0 0 0 0.0221 0 0 0 0 0 0.018 0 0 0 0 -0.0066 0.0935 -0.0272 0 0 0 0 0.0163 0 0 0 0 0 0.0171 0 0 0 0 0 0.018 0 0 0 0 -1.49012e-06 35.3322 4.76837e-05 31.7323 -5.12264e-06 -1.7078 -17.627 1.19209e-05 -2.38419e-05 42.116 19.6653 -31.9562 -20.939 -5.96046e-06 0 4.01845e-05 1.10441e-05 98.2514 -24.6622 -5.96046e-06 0 14.7004 -0.402364 62.8624 -0.0062 0.0497 0.0339 0 0 0 0 0.0215 0 0 0 0 0 0.022 0 0 0 0 0 0.017 0 0 0 0 0.0068 0.0873 0.0207 0 0 0 0 0.0267 0 0 0 0 0 0.0213 0 0 0 0 0 0.018 0 0 0 0 0.0067 0.0922 0.0055 0 0 0 0 0.0266 0 0 0 0 0 0.0228 0 0 0 0 0 0.015 0 0 0 0 0.0067 0.0925 -0.0113 0 0 0 0 0.0247 0 0 0 0 0 0.0221 0 0 0 0 0 0.018 0 0 0 0 0.0066 0.0935 -0.0272 0 0 0 0 0.0163 0 0 0 0 0 0.0171 0 0 0 0 0 0.018 0 0 0 0 -1.49012e-06 35.3322 4.76837e-05 -2.4485 9.57225 0.407402 0 18.1208 0 1.04587e-05 -1.19528e-05 -1.70755e-06 
-41.7005 23.8084 -201.821 -2.63228 12.1337 14.7973 6.45787 -6.30271 2.55914 -13.3196 -12.1128 -5.9508 2.79397e-06 -49.251 -2.38419e-05 7.52653 -4.62058 0.609804 -9.03383e-06 -36.5029 -4.76837e-05 19.6035 11.6883 4.39321 -6.91245 -6.20882 1.81122 -6.76609 -9.13921 -10.5448 0 -41.8062 0 19.5037 25.0564 -4.71234e-07 5.96046e-06 -46.463 0 -36.0083 -63.1443 -41.7293 -3.72529e-06 5.904 -5.90394 -1.65775 -11.6782 2.11536 -1.04308e-05 35.3322 -2.38419e-05 -22.9316 1.23797e-05 1.29701 16.2674 5.96046e-06 0 -35.9849 32.3715 -30.8244 23.0861 -5.96046e-06 0 -1.65902e-05 3.43856e-06 -113.419 19.6978 0 1.19209e-05 5.9825 9.59614 155.973 0.0062 0.0497 0.0339 0 0 0 0 0.0215 0 0 0 0 0 0.022 0 0 0 0 0 0.017 0 0 0 0 -0.0068 0.0873 0.0207 0 0 0 0 0.0267 0 0 0 0 0 0.0213 0 0 0 0 0 0.018 0 0 0 0 -0.0067 0.0922 0.0055 0 0 0 0 0.0266 0 0 0 0 0 0.0228 0 0 0 0 0 0.015 0 0 0 0 -0.0067 0.0925 -0.0113 0 0 0 0 0.0247 0 0 0 0 0 0.0221 0 0 0 0 0 0.018 0 0 0 0 -0.0066 0.0935 -0.0272 0 0 0 0 0.0163 0 0 0 0 0 0.0171 0 0 0 0 0 0.018 0 0 0 0 -1.04308e-05 35.3322 -2.38419e-05 31.5781 -7.68396e-06 -1.21098 -17.423 -8.9407e-06 4.76837e-05 42.574 18.9273 -38.3912 -21.0401 -1.78814e-05 -2.38419e-05 2.64935e-05 9.02408e-06 100.476 -24.7731 5.96046e-05 -1.78814e-05 17.0607 -0.342288 62.4931 -0.0062 0.0497 0.0339 0 0 0 0 0.0215 0 0 0 0 0 0.022 0 0 0 0 0 0.017 0 0 0 0 0.0068 0.0873 0.0207 0 0 0 0 0.0267 0 0 0 0 0 0.0213 0 0 0 0 0 0.018 0 0 0 0 0.0067 0.0922 0.0055 0 0 0 0 0.0266 0 0 0 0 0 0.0228 0 0 0 0 0 0.015 0 0 0 0 0.0067 0.0925 -0.0113 0 0 0 0 0.0247 0 0 0 0 0 0.0221 0 0 0 0 0 0.018 0 0 0 0 0.0066 0.0935 -0.0272 0 0 0 0 0.0163 0 0 0 0 0 0.0171 0 0 0 0 0 0.018 0 0 0 0 -1.04308e-05 35.3322 -2.38419e-05 -2.32486 9.13971 0.369484 -4.47035e-06 18.3786 2.38419e-05 1.10991e-05 -9.39151e-06 -3.4151e-06 
-41.5805 23.5431 -201.664 -2.61444 11.4634 14.7134 6.45151 -6.42774 2.12102 -13.4014 -10.323 -2.73575 -2.98023e-06 -49.3914 2.38419e-05 7.91214 -7.70764 1.06785 -4.47035e-06 -36.1129 0 13.8031 -0.897884 5.86223 -6.88863 -6.10854 1.99375 -6.71076 -9.58945 -8.85389 2.98023e-06 -41.6866 0 20.0403 26.8845 3.35031e-06 -1.49012e-05 -46.8404 -1.19209e-05 -42.7472 -65.3248 -49.3881 5.96046e-06 5.93625 -5.93624 -1.73329 -10.7956 1.85262 -1.19209e-05 35.3322 0 -25.6088 6.83019e-06 0.117126 16.0313 1.19209e-05 0 -36.2003 30.7071 -32.0485 23.6836 0 1.19209e-05 -8.52698e-07 -3.74526e-06 -115.652 19.3159 0 -3.57628e-05 40.5132 16.1489 92.885 0.0062 0.0497 0.0339 0 0 0 0 0.0215 0 0 0 0 0 0.022 0 0 0 0 0 0.017 0 0 0 0 -0.0068 0.0873 0.0207 0 0 0 0 0.0267 0 0 0 0 0 0.0213 0 0 0 0 0 0.018 0 0 0 0 -0.0067 0.0922 0.0055 0 0 0 0 0.0266 0 0 0 0 0 0.0228 0 0 0 0 0 0.015 0 0 0 0 -0.0067 0.0925 -0.0113 0 0 0 0 0.0247 0 0 0 0 0 0.0221 0 0 0 0 0 0.018 0 0 0 0 -0.0066 0.0935 -0.0272 0 0 0 0 0.0163 0 0 0 0 0 0.0171 0 0 0 0 0 0.018 0 0 0 0 -1.19209e-05 35.3322 0 32.5803 -4.26887e-06 -0.107223 -17.5138 -1.19209e-05 -2.38419e-05 41.8038 18.6789 -47.8674 -21.596 2.38419e-05 3.57628e-05 -1.51416e-05 1.20348e-05 104.033 -25.1078 -4.17233e-05 -1.78814e-05 16.5795 -0.329758 60.5356 -0.0062 0.0497 0.0339 0 0 0 0 0.0215 0 0 0 0 0 0.022 0 0 0 0 0 0.017 0 0 0 0 0.0068 0.0873 0.0207 0 0 0 0 0.0267 0 0 0 0 0 0.0213 0 0 0 0 0 0.018 0 0 0 0 0.0067 0.0922 0.0055 0 0 0 0 0.0266 0 0 0 0 0 0.0228 0 0 0 0 0 0.015 0 0 0 0 0.0067 0.0925 -0.0113 0 0 0 0 0.0247 0 0 0 0 0 0.0221 0 0 0 0 0 0.018 0 0 0 0 0.0066 0.0935 -0.0272 0 0 0 0 0.0163 0 0 0 0 0 0.0171 0 0 0 0 0 0.018 0 0 0 0 -1.19209e-05 35.3322 0 -1.54567 9.04511 0.243056 4.47035e-06 18.5523 -2.38419e-05 1.00318e-05 -1.28066e-05 -1.70755e-06 
-41.5805 23.5431 -201.664 -2.61444 11.4634 14.7134 6.45151 -6.42774 2.12102 -13.4014 -10.323 -2.73575 -2.98023e-06 -49.3914 2.38419e-05 7.91214 -7.70764 1.06785 -4.47035e-06 -36.1129 0 13.8031 -0.897884 5.86223 -6.88863 -6.10854 1.99375 -6.71076 -9.58945 -8.85389 2.98023e-06 -41.6866 0 20.0403 26.8845 3.35031e-06 -1.49012e-05 -46.8404 -1.19209e-05 -42.7472 -65.3248 -49.3881 5.96046e-06 5.93625 -5.93624 -1.73329 -10.7956 1.85262 -1.19209e-05 35.3322 0 -25.6088 6.83019e-06 0.117126 16.0313 1.19209e-05 0 -36.2003 30.7071 -32.0485 23.6836 0 1.19209e-05 -8.52698e-07 -3.74526e-06 -115.652 19.3159 0 -3.57628e-05 40.5132 16.1489 92.885 0.0062 0.0497 0.0339 0 0 0 0 0.0215 0 0 0 0 0 0.022 0 0 0 0 0 0.017 0 0 0 0 -0.0068 0.0873 0.0207 0 0 0 0 0.0267 0 0 0 0 0 0.0213 0 0 0 0 0 0.018 0 0 0 0 -0.0067 0.0922 0.0055 0 0 0 0 0.0266 0 0 0 0 0 0.0228 0 0 0 0 0 0.015 0 0 0 0 -0.0067 0.0925 -0.0113 0 0 0 0 0.0247 0 0 0 0 0 0.0221 0 0 0 0 0 0.018 0 0 0 0 -0.0066 0.0935 -0.0272 0 0 0 0 0.0163 0 0 0 0 0 0.0171 0 0 0 0 0 0.018 0 0 0 0 -1.19209e-05 35.3322 0 32.5803 -4.26887e-06 -0.107223 -17.5138 -1.19209e-05 -2.38419e-05 41.8038 18.6789 -47.8674 -21.596 2.38419e-05 3.57628e-05 -1.51416e-05 1.20348e-05 104.033 -25.1078 -4.17233e-05 -1.78814e-05 16.5795 -0.329758 60.5356 -0.0062 0.0497 0.0339 0 0 0 0 0.0215 0 0 0 0 0 0.022 0 0 0 0 0 0.017 0 0 0 0 0.0068 0.0873 0.0207 0 0 0 0 0.0267 0 0 0 0 0 0.0213 0 0 0 0 0 0.018 0 0 0 0 0.0067 0.0922 0.0055 0 0 0 0 0.0266 0 0 0 0 0 0.0228 0 0 0 0 0 0.015 0 0 0 0 0.0067 0.0925 -0.0113 0 0 0 0 0.0247 0 0 0 0 0 0.0221 0 0 0 0 0 0.018 0 0 0 0 0.0066 0.0935 -0.0272 0 0 0 0 0.0163 0 0 0 0 0 0.0171 0 0 0 0 0 0.018 0 0 0 0 -1.19209e-05 35.3322 0 -1.54567 9.04511 0.243056 4.47035e-06 18.5523 -2.38419e-05 1.00318e-05 -1.28066e-05 -1.70755e-06 
-41.4405 23.4786 -201.758 -2.68945 11.082 15.3475 6.40733 -6.47316 1.96829 -13.5359 -9.25352 -1.65305 -1.93715e-05 -49.5991 0 8.03527 -9.52709 1.33849 -2.98023e-06 -35.919 0 11.4278 -5.43474 5.83253 -6.84913 -6.06348 2.02925 -6.76489 -9.49486 -8.57577 2.98023e-06 -41.6471 -2.38419e-05 20.2425 28.096 3.38738e-06 0 -46.3637 3.57628e-05 -44.464 -65.7501 -51.3809 -2.98023e-06 5.94101 -5.94099 -1.78845 -10.3086 1.7173 -2.98023e-06 35.3322 4.76837e-05 -26.4884 1.06722e-05 -0.586794 16.0077 0 -2.38419e-05 -36.5731 30.5668 -32.7312 24.1182 0 1.19209e-05 1.27596e-05 -3.84388e-06 -116.379 19.3578 0 -2.38419e-05 49.2057 -1.86476 72.9461 0.0062 0.0497 0.0339 0 0 0 0 0.0215 0 0 0 0 0 0.022 0 0 0 0 0 0.017 0 0 0 0 -0.0068 0.0873 0.0207 0 0 0 0 0.0267 0 0 0 0 0 0.0213 0 0 0 0 0 0.018 0 0 0 0 -0.0067 0.0922 0.0055 0 0 0 0 0.0266 0 0 0 0 0 0.0228 0 0 0 0 0 0.015 0 0 0 0 -0.0067 0.0925 -0.0113 0 0 0 0 0.0247 0 0 0 0 0 0.0221 0 0 0 0 0 0.018 0 0 0 0 -0.0066 0.0935 -0.0272 0 0 0 0 0.0163 0 0 0 0 0 0.0171 0 0 0 0 0 0.018 0 0 0 0 -2.98023e-06 35.3322 4.76837e-05 32.9787 -1.70755e-06 0.537054 -17.4901 -2.08616e-05 -2.38419e-05 41.666 18.3612 -51.9157 -21.8256 5.96046e-06 -2.38419e-05 1.09627e-05 2.19456e-05 104.016 -23.8593 1.19209e-05 -1.19209e-05 12.5458 -0.848845 55.6731 -0.0062 0.0497 0.0339 0 0 0 0 0.0215 0 0 0 0 0 0.022 0 0 0 0 0 0.017 0 0 0 0 0.0068 0.0873 0.0207 0 0 0 0 0.0267 0 0 0 0 0 0.0213 0 0 0 0 0 0.018 0 0 0 0 0.0067 0.0922 0.0055 0 0 0 0 0.0266 0 0 0 0 0 0.0228 0 0 0 0 0 0.015 0 0 0 0 0.0067 0.0925 -0.0113 0 0 0 0 0.0247 0 0 0 0 0 0.0221 0 0 0 0 0 0.018 0 0 0 0 0.0066 0.0935 -0.0272 0 0 0 0 0.0163 0 0 0 0 0 0.0171 0 0 0 0 0 0.018 0 0 0 0 -2.98023e-06 35.3322 4.76837e-05 -1.91031 8.68106 0.288435 -7.45058e-06 18.5735 -2.38419e-05 1.13125e-05 -1.36604e-05 0 
-41.2536 23.4485 -202.003 -2.96388 10.3723 15.3497 6.44506 -6.57727 1.69301 -13.3677 -7.88942 -0.0233428 2.23517e-05 -49.887 -2.38419e-05 8.1652 -12.0004 1.7457e-06 -4.47035e-06 -35.6615 0 8.65608 -10.0983 5.33861 -6.78854 -6.06174 2.1991 -5.872 -8.80865 -7.07184 -8.9407e-06 -41.754 2.38419e-05 19.8148 29.1656 -9.77735e-07 -5.96046e-06 -45.9152 -3.57628e-05 -45.5886 -66.1515 -52.7005 4.47035e-06 5.93711 -5.9371 -1.26862 -9.60133 0.847263 -7.45058e-06 35.3322 0 -30.335 1.10991e-05 -0.77963 16.6248 1.19209e-05 0 -34.5113 29.1984 -33.5379 23.7661 -5.96046e-06 2.38419e-05 2.85859e-05 -1.00217e-05 -116.69 19.6279 5.96046e-06 1.19209e-05 17.8708 -4.83042 59.338 0.0062 0.0497 0.0339 0 0 0 0 0.0215 0 0 0 0 0 0.022 0 0 0 0 0 0.017 0 0 0 0 -0.0068 0.0873 0.0207 0 0 0 0 0.0267 0 0 0 0 0 0.0213 0 0 0 0 0 0.018 0 0 0 0 -0.0067 0.0922 0.0055 0 0 0 0 0.0266 0 0 0 0 0 0.0228 0 0 0 0 0 0.015 0 0 0 0 -0.0067 0.0925 -0.0113 0 0 0 0 0.0247 0 0 0 0 0 0.0221 0 0 0 0 0 0.018 0 0 0 0 -0.0066 0.0935 -0.0272 0 0 0 0 0.0163 0 0 0 0 0 0.0171 0 0 0 0 0 0.018 0 0 0 0 -7.45058e-06 35.3322 0 33.7167 1.70755e-06 0.735308 -17.6266 -1.19209e-05 0 40.0981 20.2449 -55.8349 -22.1511 1.78814e-05 1.19209e-05 1.28222e-05 6.05789e-06 105.754 -23.4039 -5.96046e-06 0 6.34359 -1.36432 44.0166 -0.0062 0.0497 0.0339 0 0 0 0 0.0215 0 0 0 0 0 0.022 0 0 0 0 0 0.017 0 0 0 0 0.0068 0.0873 0.0207 0 0 0 0 0.0267 0 0 0 0 0 0.0213 0 0 0 0 0 0.018 0 0 0 0 0.0067 0.0922 0.0055 0 0 0 0 0.0266 0 0 0 0 0 0.0228 0 0 0 0 0 0.015 0 0 0 0 0.0067 0.0925 -0.0113 0 0 0 0 0.0247 0 0 0 0 0 0.0221 0 0 0 0 0 0.018 0 0 0 0 0.0066 0.0935 -0.0272 0 0 0 0 0.0163 0 0 0 0 0 0.0171 0 0 0 0 0 0.018 0 0 0 0 -7.45058e-06 35.3322 0 -2.44677 8.51711 0.362598 -5.96046e-06 18.4788 4.76837e-05 1.02453e-05 -9.39151e-06 0 
